{
  "accessors": [
    {
      "bufferView": 2,
      "componentType": 5126,
      "count": 53417,
      "max": [
        469.7873229980469,
        467.8487243652344,
        737.6814575195313
      ],
      "min": [
        -456.1391906738281,
        -463.9813537597656,
        -893.27392578125
      ],
      "type": "VEC3"
    },
    {
      "bufferView": 2,
      "byteOffset": 641004,
      "componentType": 5126,
      "count": 53417,
      "max": [
        0.9999948143959045,
        0.9999892711639404,
        0.999998927116394
      ],
      "min": [
        -0.9999963045120239,
        -0.9999799728393555,
        -0.9999181032180786
      ],
      "type": "VEC3"
    },
    {
      "bufferView": 3,
      "componentType": 5126,
      "count": 53417,
      "max": [
        0.9999716877937317,
        0.9999992847442627,
        0.9999731779098511,
        1.0
      ],
      "min": [
        -0.9999774694442749,
        -0.9999256730079651,
        -0.9997674226760864,
        1.0
      ],
      "type": "VEC4"
    },
    {
      "bufferView": 1,
      "componentType": 5126,
      "count": 53417,
      "max": [
        0.99609375,
        0.9741578698158264
      ],
      "min": [
        0.00390625,
        0.00390625
      ],
      "type": "VEC2"
    },
    {
      "bufferView": 0,
      "componentType": 5125,
      "count": 306102,
      "type": "SCALAR"
    }
  ],
  "asset": {
    "extras": {
      "author": "Global Digital Heritage and GDH-Afrika (https://sketchfab.com/GlobalDigitalHeritage)",
      "license": "CC-BY-NC-4.0 (http://creativecommons.org/licenses/by-nc/4.0/)",
      "source": "https://sketchfab.com/3d-models/container-quimbaya-culture-63c77aa543f843b8ace63739ff680865",
      "title": "Container, Quimbaya culture"
    },
    "generator": "Sketchfab-16.56.0",
    "version": "2.0"
  },
  "bufferViews": [
    {
      "buffer": 0,
      "byteLength": 1224408,
      "name": "floatBufferViews",
      "target": 34963
    },
    {
      "buffer": 0,
      "byteLength": 427336,
      "byteOffset": 1224408,
      "byteStride": 8,
      "name": "floatBufferViews",
      "target": 34962
    },
    {
      "buffer": 0,
      "byteLength": 1282008,
      "byteOffset": 1651744,
      "byteStride": 12,
      "name": "floatBufferViews",
      "target": 34962
    },
    {
      "buffer": 0,
      "byteLength": 854672,
      "byteOffset": 2933752,
      "byteStride": 16,
      "name": "floatBufferViews",
      "target": 34962
    }
  ],
  "buffers": [
    {
      "byteLength": 3788424,
      "uri": "scene.bin"
    }
  ],
  "images": [
    {
      "uri": "textures/17444_baseColor.jpeg"
    },
    {
      "uri": "textures/17444_metallicRoughness.png"
    },
    {
      "uri": "textures/17444_normal.png"
    }
  ],
  "materials": [
    {
      "doubleSided": true,
      "name": "17444",
      "normalTexture": {
        "index": 2
      },
      "occlusionTexture": {
        "index": 1
      },
      "pbrMetallicRoughness": {
        "baseColorTexture": {
          "index": 0
        },
        "metallicRoughnessTexture": {
          "index": 1
        }
      }
    }
  ],
  "meshes": [
    {
      "name": "17444_LP_17444_0",
      "primitives": [
        {
          "attributes": {
            "NORMAL": 1,
            "POSITION": 0,
            "TANGENT": 2,
            "TEXCOORD_0": 3
          },
          "indices": 4,
          "material": 0,
          "mode": 4
        }
      ]
    }
  ],
  "nodes": [
    {
      "children": [
        1
      ],
      "matrix": [
        1.0,
        0.0,
        0.0,
        0.0,
        0.0,
        2.220446049250313e-16,
        -1.0,
        0.0,
        0.0,
        1.0,
        2.220446049250313e-16,
        0.0,
        0.0,
        0.0,
        0.0,
        1.0
      ],
      "name": "Sketchfab_model"
    },
    {
      "children": [
        2
      ],
      "matrix": [
        0.009999999776482582,
        0.0,
        0.0,
        0.0,
        0.0,
        0.0,
        0.009999999776482582,
        0.0,
        0.0,
        -0.009999999776482582,
        0.0,
        0.0,
        0.0,
        0.0,
        0.0,
        1.0
      ],
      "name": "8060d39d5be94433a87466bc76f0b809.fbx"
    },
    {
      "children": [
        3
      ],
      "name": "RootNode"
    },
    {
      "children": [
        4
      ],
      "matrix": [
        0.009999391338793318,
        0.00011031039532544547,
        2.566262034358413e-11,
        0.0,
        6.995162915528399e-07,
        -6.341191822854579e-05,
        0.009999798696421605,
        0.0,
        0.00011030816709277584,
        -0.00999918933971783,
        -6.34157704943447e-05,
        0.0,
        0.0,
        0.0,
        0.0,
        1.0
      ],
      "name": "17444_LP"
    },
    {
      "mesh": 0,
      "name": "17444_LP_17444_0"
    }
  ],
  "samplers": [
    {
      "magFilter": 9729,
      "minFilter": 9987,
      "wrapS": 10497,
      "wrapT": 10497
    }
  ],
  "scene": 0,
  "scenes": [
    {
      "name": "Sketchfab_Scene",
      "nodes": [
        0
      ]
    }
  ],
  "textures": [
    {
      "sampler": 0,
      "source": 0
    },
    {
      "sampler": 0,
      "source": 1
    },
    {
      "sampler": 0,
      "source": 2
    }
  ]
}
